<?xml version="1.0" standalone="no"?>
<!DOCTYPE svg PUBLIC "-//W3C//DTD SVG 20010904//EN"
 "http://www.w3.org/TR/2001/REC-SVG-20010904/DTD/svg10.dtd">
<svg version="1.0" xmlns="http://www.w3.org/2000/svg"
 width="2136.000000pt" height="975.000000pt" viewBox="0 0 2136.000000 975.000000"
 preserveAspectRatio="xMidYMid meet">

<g transform="translate(0.000000,975.000000) scale(0.100000,-0.100000)"
fill="#000000" stroke="none">
<path d="M3053 8373 c9 -2 23 -2 30 0 6 3 -1 5 -18 5 -16 0 -22 -2 -12 -5z"/>
<path d="M3523 8373 c9 -2 23 -2 30 0 6 3 -1 5 -18 5 -16 0 -22 -2 -12 -5z"/>
<path d="M10948 8373 c6 -2 18 -2 25 0 6 3 1 5 -13 5 -14 0 -19 -2 -12 -5z"/>
<path d="M11413 8373 c9 -2 23 -2 30 0 6 3 -1 5 -18 5 -16 0 -22 -2 -12 -5z"/>
<path d="M14478 8373 c6 -2 18 -2 25 0 6 3 1 5 -13 5 -14 0 -19 -2 -12 -5z"/>
<path d="M14828 8373 c6 -2 18 -2 25 0 6 3 1 5 -13 5 -14 0 -19 -2 -12 -5z"/>
<path d="M3658 8363 c7 -3 16 -2 19 1 4 3 -2 6 -13 5 -11 0 -14 -3 -6 -6z"/>
<path d="M10848 8363 c7 -3 16 -2 19 1 4 3 -2 6 -13 5 -11 0 -14 -3 -6 -6z"/>
<path d="M11548 8363 c7 -3 16 -2 19 1 4 3 -2 6 -13 5 -11 0 -14 -3 -6 -6z"/>
<path d="M14948 8363 c7 -3 16 -2 19 1 4 3 -2 6 -13 5 -11 0 -14 -3 -6 -6z"/>
<path d="M2878 8353 c7 -3 16 -2 19 1 4 3 -2 6 -13 5 -11 0 -14 -3 -6 -6z"/>
<path d="M11638 8353 c7 -3 16 -2 19 1 4 3 -2 6 -13 5 -11 0 -14 -3 -6 -6z"/>
<path d="M15028 8353 c7 -3 16 -2 19 1 4 3 -2 6 -13 5 -11 0 -14 -3 -6 -6z"/>
<path d="M7320 8260 c0 -21 14 -48 47 -88 26 -31 63 -93 84 -137 72 -154 69
-94 69 -1457 0 -773 -4 -1254 -10 -1305 -28 -219 -92 -366 -215 -488 -134
-135 -255 -183 -485 -192 -111 -4 -152 -1 -233 15 -270 56 -447 236 -520 527
-28 110 -37 238 -37 533 l0 292 -35 0 -35 0 0 954 c0 924 1 956 20 1018 11 34
20 66 20 70 0 4 -224 9 -499 10 l-499 3 10 -25 c44 -115 42 -66 48 -1365 5
-1106 8 -1240 23 -1325 68 -369 181 -607 391 -816 55 -55 135 -123 176 -151
210 -141 464 -228 780 -270 173 -22 661 -13 820 16 144 27 368 97 480 151 361
175 597 472 704 883 61 234 59 191 65 1527 l6 1225 27 80 c30 89 77 172 138
245 24 29 40 58 40 74 l0 26 -690 0 -690 0 0 -30z"/>
<path d="M18920 8260 c0 -21 14 -48 47 -88 51 -63 103 -165 130 -257 16 -54
18 -127 21 -737 l3 -678 -846 0 -845 0 0 -250 0 -250 -33 0 -34 0 -7 898 c-7
929 -5 975 33 1075 6 16 11 30 11 33 0 2 -225 4 -499 4 l-500 0 14 -33 c7 -18
21 -71 30 -118 14 -76 15 -256 13 -1695 -3 -1534 -4 -1612 -22 -1674 -28 -98
-67 -178 -124 -253 -35 -46 -52 -77 -52 -98 l0 -29 690 0 690 0 0 26 c0 16
-17 44 -46 77 -25 29 -63 88 -84 132 -77 156 -74 120 -78 878 l-3 677 846 0
846 0 -4 -682 c-3 -620 -5 -689 -21 -743 -24 -80 -86 -198 -136 -259 -26 -32
-40 -58 -40 -77 l0 -29 685 0 685 0 0 28 c0 19 -16 49 -50 90 -54 69 -100 157
-127 248 -17 55 -18 160 -21 1689 -2 1439 -1 1639 13 1710 19 97 87 242 144
307 29 33 41 55 41 77 l0 31 -685 0 -685 0 0 -30z"/>
<path d="M4250 8243 c5 -2 10 -36 10 -74 l0 -69 -1062 0 -1062 0 -81 -49
c-558 -343 -936 -950 -1006 -1620 -27 -258 3 -612 75 -898 160 -629 528 -1071
1081 -1296 317 -130 658 -187 1109 -187 453 0 808 56 1136 178 l75 28 152 444
c140 407 152 446 136 458 -28 20 -40 15 -116 -49 -253 -213 -576 -370 -873
-425 -153 -28 -502 -26 -641 4 -443 96 -755 372 -928 822 -168 435 -187 1047
-45 1471 108 326 286 551 543 685 107 56 90 56 -29 0 -379 -180 -641 -532
-763 -1026 -42 -169 -59 -289 -73 -517 l-12 -193 -33 0 -33 0 0 63 c0 34 5
128 10 209 63 970 563 1559 1355 1594 363 16 648 -51 949 -225 50 -29 101 -51
118 -51 l28 0 -2 362 c-2 283 -6 362 -16 364 -7 1 -8 0 -2 -3z"/>
<path d="M13776 8182 c-352 -184 -540 -475 -577 -889 -25 -273 34 -521 173
-735 153 -234 365 -410 793 -658 487 -282 575 -341 689 -460 121 -127 164
-243 145 -393 -26 -210 -186 -324 -500 -358 -419 -46 -875 117 -1201 430 -54
52 -114 115 -134 142 -33 45 -36 47 -64 37 -17 -5 -30 -14 -30 -20 0 -5 -22
-185 -50 -401 -27 -216 -50 -409 -50 -429 l0 -37 133 -65 c317 -155 691 -253
1085 -287 175 -14 524 -7 671 15 518 78 866 282 1061 622 47 82 99 226 125
344 23 102 31 397 15 498 -39 244 -158 461 -356 652 -194 186 -368 298 -893
575 -378 199 -519 296 -606 420 -64 91 -78 138 -73 242 5 101 24 147 91 221
l42 46 -63 -35 c-146 -78 -308 -237 -388 -380 -22 -38 -45 -69 -51 -69 -20 0
-17 9 35 111 105 210 261 358 496 470 148 71 236 89 429 89 231 0 420 -44 644
-151 134 -64 123 -84 123 231 l0 270 -806 2 -807 3 -101 -53z"/>
<path d="M4850 8226 c0 -2 8 -10 18 -17 15 -13 16 -12 3 4 -13 16 -21 21 -21
13z"/>
<path d="M4890 8176 c0 -2 8 -10 18 -17 15 -13 16 -12 3 4 -13 16 -21 21 -21
13z"/>
<path d="M16300 8176 c0 -2 8 -10 18 -17 15 -13 16 -12 3 4 -13 16 -21 21 -21
13z"/>
<path d="M9950 8052 c-491 -307 -838 -798 -964 -1362 -41 -186 -51 -283 -51
-500 0 -218 9 -298 55 -532 59 -295 189 -609 338 -818 250 -351 601 -581 1067
-700 262 -67 471 -90 820 -90 426 0 738 46 1065 156 l138 47 152 445 c144 420
151 446 134 459 -10 7 -23 13 -28 13 -6 0 -47 -30 -91 -66 -259 -212 -553
-357 -842 -415 -136 -27 -398 -36 -539 -20 -504 59 -866 349 -1057 846 -42
108 -90 300 -112 445 -22 144 -31 469 -16 611 55 526 270 905 625 1095 33 19
57 34 53 34 -14 0 -189 -90 -242 -126 -406 -269 -647 -799 -672 -1476 l-6
-168 -34 0 -33 0 0 123 c0 555 167 1044 461 1351 287 301 669 428 1159 387
257 -21 483 -96 708 -232 36 -22 77 -39 93 -39 l29 0 0 290 0 290 -1062 2
-1063 3 -85 -53z"/>
</g>
</svg>
